<?xml version="1.0" encoding="utf-8"?>
<!-- Generator: Adobe Illustrator 24.0.0, SVG Export Plug-In . SVG Version: 6.00 Build 0)  -->
<svg version="1.1" id="Layer_1" xmlns="http://www.w3.org/2000/svg" xmlns:xlink="http://www.w3.org/1999/xlink" x="0px" y="0px"
	 viewBox="0 0 160 160" style="enable-background:new 0 0 160 160;" xml:space="preserve">
<style type="text/css">
	.st0{fill:#FFD140;}
	.st1{fill:#FFB139;}
	.st2{fill-opacity:0;}
	.st3{fill:#F77E41;}
	.st4{fill:#FFDF79;}
	.st5{fill:#FFFFFF;}
</style>
<g>
	<g>
		<g transform="matrix(1,0,0,1,246.57000732421875,333.22601318359375)">
			<g transform="matrix(1,0,0,1,0,0)">
				<path fill="#FFD140" d="M-128.4-264.3c2.6,12.3,8.1,35.5,2,56c-6.1,20.5-13,33.3-38.5,33.4c-25.4,0.1-38.3-9.5-44.8-25.4
					c-4.3-10.6-8.8-40.7-5.5-58.4C-192-259.8-131.2-277.7-128.4-264.3z"/>
			</g>
		</g>
		<g transform="matrix(1,0,0,1,271.65399169921875,358.29901123046875)">
			<g transform="matrix(1,0,0,1,0,0)">
				<path fill="#FFB139" d="M-175.5-245.9c0,0-10.7,0.3-18.4,15.5c-2.2,4.3-3.2-4.5,2-12.7C-185.8-252.6-177.7-249.4-175.5-245.9z"/>
			</g>
		</g>
		<g transform="matrix(1,0,0,1,307.8949890136719,276.6499938964844)">
			<g transform="matrix(1,0,0,1,0,0)">
				<path fill="#FFB139" d="M-230.8-200.5c0,0,6,1.1,12.2,0s15.2-2,32.6,12.6l1,11.3l-43.5-11.3L-230.8-200.5z"/>
			</g>
		</g>
		<g transform="matrix(1,0,0,1,251.39700317382812,360.7340087890625)">
			<g transform="matrix(1,0,0,1,0,0)">
				<path fill="#FFB139" d="M-126.4-243.5c0.3,2.3,0.3,4.4,0.3,4.4c-2.5,11-8.6,20.5-19.4,29.7l0,0c-5.5,4.5-13.1,7-24.3,7
					c-25.4,0.1-38.3-9.5-44.8-25.4c-3.8-9.2-7.7-33.4-6.4-51.2c7.1-0.7,17.4-1.4,30.9,1.9c11.9,2.9,10.9,11,10.9,11
					c-11,10.3-19.1,1.6-19.1,1.6c-7.4,7.4-17.1,2.1-17.1,2.1c1,23.5,8.7,46.2,39.5,49C-150.6-211-133.3-224.8-126.4-243.5z"/>
			</g>
		</g>
		<g transform="matrix(1,0,0,1,246.57000732421875,333.22601318359375)">
			<g transform="matrix(1,0,0,1,0,0)">
				<g>
					<path fill-opacity="0" d="M-126.4-254.7c1.3,6.6,2.5,14.6,2.7,22.9c0.2,7.7-0.5,15.8-2.7,23.5c-3.6,12.2-6.1,32.4-38.5,33.4
						c-25.4,0.8-38.3-9.5-44.8-25.4c-4.3-10.6-8.8-40.7-5.5-58.4c1.7-9.4,16.2,2.9,40,3.1"/>
					<path fill="#F77E41" d="M-167.7-173.3c-22,0-36.3-8.6-43.6-26.3c-4.5-10.9-8.9-41.3-5.6-59.3c0.3-1.8,1.2-3.2,2.4-4
						c2.8-1.7,7-0.5,13.3,1.3c6.4,1.9,15.2,4.4,25.8,4.5c0.8,0,1.5,0.7,1.5,1.5c0,0.8-0.7,1.5-1.5,1.5l0,0
						c-10.9-0.1-20-2.7-26.6-4.6c-4.9-1.4-9.2-2.7-10.8-1.6c-0.3,0.2-0.8,0.6-1,1.9c-3.1,16.9,1,46.9,5.4,57.6
						c6.8,16.6,19.8,24.5,40.6,24.5c0.9,0,1.8,0,2.7,0c28.5-0.9,32.7-16.4,36.2-28.9c0.3-1.2,0.6-2.3,1-3.4c2-6.7,2.9-14.5,2.7-23
						c-0.2-6.8-1-14-2.7-22.6c-0.2-0.8,0.4-1.6,1.2-1.8c0.8-0.2,1.6,0.4,1.8,1.2c1.7,8.8,2.6,16.1,2.7,23.1
						c0.2,8.9-0.7,16.9-2.8,23.9c-0.3,1-0.6,2.2-0.9,3.3c-1.7,6.1-3.8,13.7-9.3,19.9c-6.5,7.2-16.2,10.9-29.7,11.3
						C-165.8-173.3-166.8-173.3-167.7-173.3z"/>
				</g>
			</g>
		</g>
		<g transform="matrix(1,0,0,1,256,256)">
			<g transform="matrix(1,0,0,1,-9.75,77)">
				<path fill="#FFB139" d="M-186.8-240.5c-0.7,7.4,4,16.6,14.2,17c7,0.3,19.9,1.7,24.6-5.7C-147.5-230-185.9-249.2-186.8-240.5z"/>
			</g>
		</g>
		<g transform="matrix(1,0,0,1,0.001007080078125,0)">
			<g transform="matrix(1,0,0,1,344.13800048828125,153.23399353027344)">
				<path fill="#FFD140" d="M-224-74.9c-1.6-8,3.7-28.2,5.9-39.9c3.4-18.2,8.6-34.7-3.1-36.8c-10.7-1.9-11.8,9.3-16.1,27.8
					c-5.5,23.9-6,31.7-9.4,31.7c0,0-0.2,8.2,8.3,14.9C-230-70.4-224-74.9-224-74.9z"/>
			</g>
			<g transform="matrix(1,0,0,1,353.2770080566406,110.48899841308594)">
				<path fill="#FFDF79" d="M-223.5-92.7l-2-3.5c0,0,1.2-8.3-6-7.4c-7.9,0.9-10.8,20.8-17.2,40.3l1.6-13.8c0.3-1.1,0.5-2.7,0.8-3.9
					c4.3-18.6,5.3-29.7,16.1-27.8C-223.5-107.7-222.5-101.4-223.5-92.7z"/>
			</g>
			<g transform="matrix(1,0,0,1,369.34100341796875,149.32400512695312)">
				<path fill="#FFB139" d="M-243.4-110.9c-2,10.8-6.7,29-6.1,38c-0.3-0.1-1.2,0.8-1.4,0.4c-2.6-6.9-1.7-12.5-1.2-15.3
					c3.2-17.3,3.6-17.6,5.4-26.4c5.6-27.8,4.5-30.6-1.3-32.5c-0.3-0.1-0.3-1.2-0.3-1.2c0.6,0,1.2,0.1,1.9,0.2
					C-234.8-145.7-240-129.1-243.4-110.9z"/>
			</g>
		</g>
		<g transform="matrix(1,0,0,1,363.95001220703125,64.52801513671875)">
			<g transform="matrix(1,0,0,1,0,0)">
				<g>
					<path fill-opacity="0" d="M-243.3-57.7c0,0,0.5-0.2,1.4-0.2"/>
					<path fill="#FFFFFF" d="M-243.3-56.5c-0.4,0-0.9-0.3-1-0.7c-0.3-0.6,0-1.3,0.6-1.5c0.1-0.1,0.8-0.3,1.9-0.3c0.6,0,1.1,0.6,1.1,1.2
						c0,0.6-0.6,1.1-1.2,1.1s-0.9,0.1-0.9,0.1C-243-56.6-243.2-56.5-243.3-56.5z"/>
				</g>
			</g>
		</g>
		<g transform="matrix(1,0,0,1,0.0000152587890625,0)">
			<g transform="matrix(1,0,0,1,258.3349914550781,136.72000122070312)">
				<path fill="#FFD140" d="M-184.3-76.7c0,0-2.6-12-5.3-24.3c-3.7-16.6-9.2-31,2.1-33.4c10.9-2.4,13.3,13,17.2,28.2
					c5.9,22.9,6.7,30.6,9.5,30.6c0,0,4.4,8.4-10,8.2C-185.2-67.6-184.3-76.7-184.3-76.7z"/>
			</g>
			<g transform="matrix(1,0,0,1,246.90899658203125,103.48699951171875)">
				<path fill="#FFDF79" d="M-157.8-62.4c-4.8-14.4-9.7-35.7-18.3-33.2c-5.4,1.6-3.5,8.4-3.5,8.7c-5.2-4.7-3.8-12.7,3.5-14.3
					C-165.9-103.4-160.6-84-157.8-62.4z"/>
			</g>
			<g transform="matrix(1,0,0,1,234.88600158691406,137.1580047607422)">
				<path fill="#FFB139" d="M-158-72.7c-3.4-1.9-2.9-4.5-2.9-4.5s-2.6-12-5.3-24.3c-3.2-14.1-7.6-26.7-1.9-31.6c0,0,1.3,0.5,1.2,0.8
					c-2.4,4.5,0.3,12.9,4.8,30c2.5,10,5.7,22.7,7.3,28.6C-154.6-72.7-157.1-71.9-158-72.7z"/>
			</g>
		</g>
		<g transform="matrix(1,0,0,1,300.8079833984375,194.23500061035156)">
			<g transform="matrix(1,0,0,1,0,0)">
				<path fill="#FFB139" d="M-210.1-145.9c0,0,1,18.1,6.8,18.1c7,0,6.2-20.3,6.2-20.3s-2.1,12.5-4.6,14.3S-207-136.1-210.1-145.9z"/>
			</g>
		</g>
		<g transform="matrix(1,0,0,1,0.001007080078125,0)">
			<g transform="matrix(1,0,0,1,343.8550109863281,156.1199951171875)">
				<g>
					<path fill-opacity="0" d="M-223.1-74.1c-2.2-10.2-0.5-12.4,5.2-43.6c3.3-18.2,8.1-34.9-3.1-36.8c-10.7-1.8-11.8,9.3-16.1,27.8
						c-5.5,23.9-6,31.7-9.4,31.7"/>
					<path fill="#F77E41" d="M-223.1-72.6c-0.7,0-1.3-0.5-1.5-1.2c-1.8-8.1-1.2-11.2,1.8-26.3c0.9-4.6,2-10.4,3.4-17.9
						c0.4-2.2,0.8-4.3,1.2-6.4c2.2-11.1,4.2-21.7,1.1-26.2c-0.9-1.3-2.2-2.1-4.1-2.4c-7.8-1.3-9.5,5-13,20.7c-0.4,1.9-0.9,3.9-1.3,6
						c-1.4,6.2-2.5,11.4-3.4,15.6c-1.3,6-2.1,10-3,12.7c-0.8,2.3-1.9,4.6-4.4,4.6c-0.8,0-1.5-0.7-1.5-1.5s0.7-1.5,1.5-1.5
						c1.3,0,2.6-6.2,4.5-14.9c0.9-4.2,2-9.4,3.4-15.6c0.5-2.1,0.9-4,1.3-5.9c3.3-15,5.5-24.9,16.5-23.1c2.7,0.4,4.7,1.7,6.1,3.6
						c3.9,5.6,1.8,16.2-0.6,28.5c-0.4,2.1-0.8,4.2-1.2,6.4c-1.4,7.5-2.5,13.3-3.4,17.9c-2.9,14.9-3.4,17.6-1.8,25.1
						c0.2,0.8-0.3,1.6-1.2,1.8C-222.9-72.6-223-72.6-223.1-72.6z"/>
				</g>
			</g>
		</g>
		<g transform="matrix(1,0,0,1,0.0000152587890625,0)">
			<g transform="matrix(1,0,0,1,257.62701416015625,129.656005859375)">
				<g>
					<path fill-opacity="0" d="M-160.2-68.5c-2.8,0-3.6-7.7-9.5-30.6c-3.9-15.2-6.3-30.6-17.2-28.2c-11.3,2.5-5.8,16.9-2.1,33.4
						c2.8,12.2,5.3,24.3,5.3,24.3"/>
					<path fill="#F77E41" d="M-160.2-67c-2.2,0-3.3-2.2-4.1-4.5c-0.9-2.5-1.8-6.3-3.2-12.1c-1-4.1-2.2-9.1-3.7-15.2
						c-0.4-1.7-0.8-3.3-1.2-5c-3.6-14.9-6.4-23.8-14.2-22.1c-2.1,0.4-3.5,1.3-4.4,2.7c-2.6,4.1-0.5,12.4,1.8,22
						c0.5,2.2,1.1,4.5,1.6,6.8c2.7,12.1,5.3,24.2,5.3,24.3c0.2,0.8-0.4,1.6-1.2,1.8c-0.8,0.2-1.6-0.4-1.8-1.2
						c0-0.1-2.6-12.2-5.3-24.3c-0.5-2.3-1.1-4.6-1.6-6.8c-2.5-10.3-4.7-19.2-1.4-24.4c1.3-2.1,3.4-3.5,6.3-4.1
						c5.2-1.1,9.1,1,12.1,6.6c2.5,4.6,4,11,5.7,17.8c0.4,1.6,0.8,3.3,1.2,4.9c1.6,6.1,2.8,11.2,3.8,15.2c1.8,7.6,3.3,13.6,4.3,14.3
						c0.8,0,1.5,0.7,1.5,1.5C-158.6-67.7-159.3-67-160.2-67z"/>
				</g>
			</g>
		</g>
		<g transform="matrix(1,0,0,1,260.2200012207031,226.55599975585938)">
			<g transform="matrix(1,0,0,1,0,0)">
				<path fill="#FFB139" d="M-184.6-166.7c0,0,2-5.6,2.4-4c1.1,5,3,11.8,4.4,15.4c0.9,2.4,2.6,4.9,8.3,4.6c0,0-5.8,7.1-14,5.6
					C-191.8-146.5-184.6-166.7-184.6-166.7z"/>
			</g>
		</g>
		<g transform="matrix(1,0,0,1,0,0)">
			<g transform="matrix(1,0,0,1,156.99600219726562,245.10800170898438)">
				<path fill="#FFD140" d="M-113.1-152.3c-9.1,1.2-12.7-8.7-12.7-18.3c0-9.1,2.1-15.5,10.1-16c8.8-0.5,11.8,6,11.9,16.6
					C-103.5-159.4-105.9-153.3-113.1-152.3z"/>
			</g>
			<g transform="matrix(1,0,0,1,156.99600219726562,262.4469909667969)">
				<path fill="#FFB139" d="M-113.4-169.8c-9.8,0.3-12.3-8.5-12.3-18.1c0-0.7,0-1.5,0-2.2c0.3,2.7,2.2,13.1,11.5,13.4
					c9.9,0.3,10.3-14,10.3-14l0.1,0.6l0,0c0.1,0.9,0.1,1.8,0.1,2.7C-103.5-176.8-106.2-170-113.4-169.8z"/>
			</g>
			<g transform="matrix(1,0,0,1,156.9969940185547,231.01199340820312)">
				<path fill="#FFDF79" d="M-104.1-148.8c0.8-6.9-2.5-18.9-11.3-18.4c-9,0.5-10.2,13.7-10.2,13.7l0,0c-0.1-1-0.1-1.9-0.1-2.9
					c0-9.1,2.1-15.5,10.1-16c8.8-0.5,11.8,6,11.9,16.6C-103.6-153.3-103.8-150.9-104.1-148.8z"/>
			</g>
			<g transform="matrix(1,0,0,1,156.99600219726562,245.10800170898438)">
				<g>
					<path fill-opacity="0" d="M-113.1-152.3c-9.1,1.2-12.7-8.7-12.7-18.3c0-9.1,2.1-15.5,10.1-16c8.8-0.5,11.8,6,11.9,16.6
						C-103.5-159.4-105.9-153.3-113.1-152.3z"/>
					<path fill="#F77E41" d="M-114.6-150.6c-2.6,0-4.9-0.9-6.8-2.5c-3.7-3.3-5.9-9.6-5.9-17.4c0-7.2,1.2-16.9,11.6-17.5
						c3.7-0.2,6.6,0.7,8.8,2.7c3.1,2.8,4.6,7.9,4.7,15.4c0.1,8.3-1,17.9-10.7,19.2C-113.4-150.7-114-150.6-114.6-150.6z
						 M-114.6-185.1c-0.3,0-0.6,0-0.9,0c-6.2,0.4-8.7,4.6-8.7,14.5c0,6.8,1.8,12.5,4.8,15.1c1.7,1.5,3.7,2,6.1,1.7l0,0
						c5.8-0.8,8.2-5.6,8-16.2c-0.1-6.6-1.3-10.9-3.7-13.2C-110.4-184.5-112.2-185.1-114.6-185.1z"/>
				</g>
			</g>
			<g transform="matrix(1,0,0,1,158.52200317382812,273.3909912109375)">
				<g>
					<path fill-opacity="0" d="M-117.7-187c0,0,2,0.6,4.1,0"/>
					<path fill="#F77E41" d="M-115.6-185.2c-1.4,0-2.4-0.3-2.5-0.3c-0.8-0.2-1.3-1.1-1-1.9c0.2-0.8,1.1-1.3,1.9-1c0,0,1.7,0.5,3.2,0
						c0.8-0.2,1.7,0.2,1.9,1s-0.2,1.7-1,1.9C-114-185.3-114.8-185.2-115.6-185.2z"/>
				</g>
			</g>
		</g>
		<g transform="matrix(1,0,0,1,0,0)">
			<g transform="matrix(1,0,0,1,216.58399963378906,239.50599670410156)">
				<path fill="#FFD140" d="M-153.6-186c-7.7,0.9-11,8.2-9.7,22.5c1.3,13.5,6.5,17.6,13,17.6c5.8,0,10.6-4.9,10.7-17.6
					C-139.5-174.9-142.1-187.2-153.6-186z"/>
			</g>
			<g transform="matrix(1,0,0,1,216.38699340820312,261.58599853515625)">
				<path fill="#FFB139" d="M-140.8-191.3c2.9,16.9-3.4,23.3-9.2,23.4c-6,0-13.3-7.1-12.7-20.6c1,1.7,1.1,12.1,12.1,11.5
					C-139.4-177.7-140.8-191.3-140.8-191.3z"/>
			</g>
			<g transform="matrix(1,0,0,1,218.57200622558594,270.83599853515625)">
				<g>
					<path fill-opacity="0" d="M-154.8-185.3c0,0,2,0.5,4.1-0.1"/>
					<path fill="#F77E41" d="M-153-183.6c-1.2,0-2.1-0.2-2.2-0.3c-0.8-0.2-1.3-1.1-1.1-1.9c0.2-0.8,1-1.3,1.9-1.1c0,0,1.7,0.4,3.2-0.1
						c0.8-0.3,1.7,0.2,1.9,1c0.3,0.8-0.2,1.7-1,1.9C-151.2-183.7-152.2-183.6-153-183.6z"/>
				</g>
			</g>
			<g transform="matrix(1,0,0,1,216.5850067138672,221.11500549316406)">
				<path fill="#FFDF79" d="M-139.5-145c0,0-2.6-16.9-12.4-16.9c-9.8,0-10.7,14.3-10.8,20.4l0,0c-0.2-1.1-0.3-2.3-0.5-3.5
					c-1.3-14.4,1.9-21.7,9.7-22.5C-142.1-168.8-139.5-156.5-139.5-145z"/>
			</g>
			<g transform="matrix(1,0,0,1,216.58399963378906,239.50599670410156)">
				<g>
					<path fill-opacity="0" d="M-153.6-186c-7.7,0.9-11,8.2-9.7,22.5c1.3,13.5,6.5,17.6,13,17.6c5.8,0,10.6-4.9,10.7-17.6
						C-139.5-174.9-142.1-187.2-153.6-186z"/>
					<path fill="#F77E41" d="M-150.2-144.3c-8.5,0-13.4-6.4-14.5-19c-1.4-15.1,2.3-23.2,11-24.2l0,0c3.8-0.4,7.1,0.5,9.6,2.8
						c4.1,3.7,6.2,10.9,6.2,21.3C-138-146.2-146.5-144.3-150.2-144.3L-150.2-144.3z M-153.4-184.4c-2.5,0.3-10.1,1.1-8.3,20.9
						c1.5,16.2,9.1,16.2,11.5,16.2c5.8,0,9.1-5.9,9.1-16c0-9.4-1.8-16-5.1-19.1C-148.1-184.1-150.4-184.8-153.4-184.4L-153.4-184.4z
						"/>
				</g>
			</g>
		</g>
		<g transform="matrix(1,0,0,1,0,0)">
			<g transform="matrix(1,0,0,1,289.2590026855469,353.34100341796875)">
				<path fill="#FFD140" d="M-194.3-240.5c-1.9-4.1-4.3-7.2-7.5-8.1s-11.4,0.7-18.7-2.6c-6.7-3-12.3-13.1-8.5-18
					c2.9-3.8,12.1-1.5,19.8-1.7s10.7-1.2,15.3-0.5s25.5,8.4,30,18.8c3.8,8.9,0.3,33.3-20.1,48.7L-194.3-240.5z"/>
			</g>
			<g transform="matrix(1,0,0,1,344.1619873046875,394.2860107421875)">
				<path fill="#FFB139" d="M-241.8-251.3c0,0,19.6-9.3,22.9-29.9c0,0,0.6,21.7-20.1,36.8L-241.8-251.3z"/>
			</g>
			<g transform="matrix(1,0,0,1,289.2590026855469,332.40399169921875)">
				<path fill="#FFDF79" d="M-170.6-196.1c5.2-14.8,7.1-24.1,3.4-31.9c-3.9-8.2-20.3-19.2-33.7-17.6c-13.4,1.5-18.6-1.7-23.7,0.4
					c-5,2,0.6,12.7,0.7,12.9c-5-4.2-8.2-11.8-5.1-15.8c2.9-3.8,12.1-1.5,19.8-1.7s10.7-1.2,15.3-0.5s25.5,8.4,30,18.8
					C-161.3-225.3-162.5-210-170.6-196.1z"/>
			</g>
			<g transform="matrix(1,0,0,1,249.77699279785156,308.60198974609375)">
				<path fill="#FFB139" d="M-190.7-221.2c0,0,2.9,11.6,15.4,11.8c9.3,0.1,23.2-2,22,13.4c0,0-4.9-7.4-9-7.7s-13.3,0.1-22.1-4.7
					C-192.2-212.8-190.7-221.2-190.7-221.2z"/>
			</g>
			<g transform="matrix(1,0,0,1,288.6400146484375,353.34100341796875)">
				<g>
					<path fill-opacity="0" d="M-184-201c20.4-15.4,24.5-42.5,20.7-51.4c-4.5-10.5-25.4-18.2-30-18.8s-7.6,0.3-15.3,0.5
						s-16.7-1.9-19.8,1.7c-3.9,4.5-1.2,15.1,8.5,18c7.6,2.3,15.4,1.7,18.7,2.6s5.7,3.9,7.5,8.1"/>
					<path fill="#F77E41" d="M-184-199.5c-0.5,0-0.9-0.2-1.2-0.6c-0.5-0.7-0.4-1.6,0.3-2.1c8.7-6.6,15.4-16.3,18.9-27.4
						c3.2-10,2.9-18.5,1.3-22.2c-4.2-9.8-24.5-17.3-28.8-17.9c-2.5-0.4-4.6-0.2-7.4,0.1c-2,0.2-4.4,0.4-7.6,0.5
						c-2.3,0.1-4.6-0.1-6.9-0.2c-4.9-0.3-10-0.6-11.7,1.4c-1.4,1.6-1.7,4.3-0.9,7c1.2,4,4.4,7.2,8.7,8.5c4.6,1.4,9.3,1.7,13,1.9
						c2.4,0.2,4.3,0.3,5.6,0.6c3.4,0.9,6.2,3.8,8.5,8.9c0.4,0.8,0,1.7-0.8,2c-0.8,0.4-1.7,0-2-0.8c-1.9-4.2-4.1-6.6-6.5-7.2
						c-1.1-0.3-2.9-0.4-5-0.5c-3.7-0.2-8.8-0.6-13.7-2c-5.3-1.6-9.3-5.5-10.7-10.6c-1.1-3.8-0.5-7.5,1.5-9.9
						c2.7-3.1,8.3-2.8,14.2-2.5c2.2,0.1,4.5,0.3,6.7,0.2c3.1-0.1,5.4-0.3,7.4-0.4c2.9-0.3,5.2-0.5,8.1,0c5,0.7,26.4,8.6,31.1,19.7
						c4.2,9.9-0.6,37.7-21.2,53.2C-183.4-199.6-183.7-199.5-184-199.5z"/>
				</g>
			</g>
			<g transform="matrix(1,0,0,1,289.2590026855469,332.40399169921875)">
				<g>
					<path fill-opacity="0" d="M-188.7-243.5c-1.8-0.7-3.7-1.2-5.5-1.6"/>
					<path fill="#FFFFFF" d="M-188.7-242.4c-0.1,0-0.3,0-0.4-0.1c-1.8-0.7-3.6-1.2-5.3-1.6c-0.6-0.1-1-0.7-0.9-1.4
						c0.1-0.6,0.7-1,1.4-0.9c1.8,0.4,3.7,0.9,5.6,1.7c0.6,0.2,0.9,0.9,0.7,1.5S-188.2-242.4-188.7-242.4z"/>
				</g>
			</g>
			<g transform="matrix(1,0,0,1,289.2590026855469,332.40399169921875)">
				<g>
					<path fill-opacity="0" d="M-199.3-245.7c-0.4,0-0.8,0-1.2,0"/>
					<path fill="#FFFFFF" d="M-200.5-244.5c-0.6,0-1.1-0.5-1.1-1.1s0.4-1.2,1.1-1.2c0.4,0,0.8,0,1.3,0l0,0c0.6,0,1.1,0.5,1.1,1.1
						s-0.5,1.1-1.1,1.1C-199.7-244.5-200.1-244.5-200.5-244.5C-200.4-244.5-200.5-244.5-200.5-244.5z"/>
				</g>
			</g>
		</g>
	</g>
</g>
</svg>
